<?xml version="1.0" encoding="UTF-8"?>
<!DOCTYPE svg PUBLIC "-//W3C//DTD SVG 1.1//EN" "http://www.w3.org/Graphics/SVG/1.1/DTD/svg11.dtd">
<!-- Creator: CorelDRAW 2020 (64-Bit) -->
<svg xmlns="http://www.w3.org/2000/svg" xml:space="preserve" width="515px" height="515px" version="1.1" shape-rendering="geometricPrecision" text-rendering="geometricPrecision" image-rendering="optimizeQuality" fill-rule="evenodd" clip-rule="evenodd"
viewBox="0 0 515 515"
 xmlns:xlink="http://www.w3.org/1999/xlink"
 xmlns:xodm="http://www.corel.com/coreldraw/odm/2003">
 <g id="Слой_x0020_1">
  <metadata id="CorelCorpID_0Corel-Layer"/>
  <g id="_3077014476384">
   <g>
    <polygon fill="#FEFEFE" points="-0.17,1.11 -0.17,515.17 513.89,515.17 513.89,1.11 "/>
    <polygon id="1" fill="none" fill-rule="nonzero" stroke="#2B2A29" stroke-width="0.9" stroke-miterlimit="22.9256" points="-0.17,1.11 -0.17,515.17 513.89,515.17 513.89,1.11 "/>
   </g>
   <g>
    <path fill="#2B2A29" fill-rule="nonzero" d="M103.51 461.04l-98.49 0 0 -0.69 98.49 0 0.34 0.35 -0.34 0.34zm0 -0.69l0.34 0 0 0.35 -0.34 -0.35zm-0.34 49.68l0 -49.33 0.68 0 0 49.33 -0.34 0.35 -0.34 -0.35zm0.68 0l0 0.35 -0.34 0 0.34 -0.35zm-98.83 -0.34l98.49 0 0 0.69 -98.49 0 -0.34 -0.35 0.34 -0.34zm0 0.69l-0.34 0 0 -0.35 0.34 0.35zm0.35 -49.68l0 49.33 -0.69 0 0 -49.33 0.34 -0.35 0.35 0.35zm-0.69 0l0 -0.35 0.34 0 -0.34 0.35z"/>
   </g>
   <g>
    <polygon fill="#6BC8EB" points="161.42,1.11 161.42,312.82 513.89,312.82 513.89,1.11 "/>
    <polygon id="1" fill="none" fill-rule="nonzero" stroke="#2B2A29" stroke-width="0.9" stroke-miterlimit="22.9256" points="161.42,1.11 161.42,312.82 513.89,312.82 513.89,1.11 "/>
   </g>
   <g>
    <path fill="#E31E24" d="M413.6 233.99l0 78.83 -82.25 0 0 -78.83c0,-15.08 12.33,-27.41 27.41,-27.41l27.42 0c15.08,0 27.42,12.33 27.42,27.41z"/>
    <path id="1" fill="none" fill-rule="nonzero" stroke="#2B2A29" stroke-width="0.9" stroke-miterlimit="22.9256" d="M413.6 233.99l0 78.83 -82.25 0 0 -78.83c0,-15.08 12.33,-27.41 27.41,-27.41l27.42 0c15.08,0 27.42,12.33 27.42,27.41z"/>
   </g>
   <path fill="#2B2A29" fill-rule="nonzero" d="M33.45 495.79l0 -20.78 2.75 0 0 10.31 10.32 -10.31 3.73 0 -8.72 8.43 9.09 12.35 -3.62 0 -7.4 -10.48 -3.4 3.29 0 7.19 -2.75 0zm18.13 -6.24l0 -2.55 7.89 0 0 2.55 -7.89 0zm23.36 3.8l0 2.44 -13.75 0c-0.02,-0.61 0.08,-1.2 0.3,-1.77 0.35,-0.94 0.92,-1.86 1.69,-2.77 0.78,-0.9 1.9,-1.94 3.34,-3.13 2.25,-1.85 3.78,-3.32 4.58,-4.4 0.8,-1.08 1.2,-2.11 1.2,-3.08 0,-1.01 -0.36,-1.86 -1.09,-2.55 -0.72,-0.7 -1.67,-1.04 -2.84,-1.04 -1.23,0 -2.22,0.36 -2.96,1.1 -0.74,0.73 -1.11,1.75 -1.12,3.04l-2.61 -0.26c0.18,-1.95 0.86,-3.44 2.03,-4.46 1.17,-1.03 2.74,-1.54 4.72,-1.54 1.99,0 3.57,0.55 4.74,1.66 1.16,1.1 1.74,2.48 1.74,4.11 0,0.83 -0.17,1.65 -0.51,2.45 -0.34,0.81 -0.91,1.66 -1.69,2.55 -0.8,0.88 -2.11,2.11 -3.93,3.65 -1.54,1.29 -2.53,2.16 -2.96,2.62 -0.44,0.46 -0.79,0.92 -1.08,1.38l10.2 0z"/>
   <g>
    <path fill="none" fill-rule="nonzero" stroke="#FEFEFE" stroke-width="0.9" stroke-miterlimit="22.9256" d="M358.76 234c0,-15.15 12.28,-27.42 27.42,-27.42 15.14,0 27.42,12.27 27.42,27.42 0,15.14 -12.28,27.41 -27.42,27.41"/>
   </g>
   <g>
    <path fill="none" fill-rule="nonzero" stroke="#FEFEFE" stroke-width="0.9" stroke-miterlimit="22.9256" d="M386.18 234c0,-15.15 -12.27,-27.42 -27.42,-27.42 -15.14,0 -27.41,12.27 -27.41,27.42 0,15.14 12.27,27.41 27.41,27.41"/>
   </g>
   <g>
    <g>
     <line fill="none" fill-rule="nonzero" stroke="#2B2A29" stroke-width="0.9" stroke-miterlimit="22.9256" x1="413.6" y1="304.25" x2="413.6" y2= "148.4" />
    </g>
    <g>
     <line fill="none" fill-rule="nonzero" stroke="#2B2A29" stroke-width="0.9" stroke-miterlimit="22.9256" x1="331.35" y1="304.25" x2="331.35" y2= "148.4" />
    </g>
    <g>
     <line fill="none" fill-rule="nonzero" stroke="#2B2A29" stroke-width="0.9" stroke-miterlimit="22.9256" x1="409.54" y1="156.96" x2="413.6" y2= "156.96" />
    </g>
    <g>
     <line fill="none" fill-rule="nonzero" stroke="#2B2A29" stroke-width="0.9" stroke-miterlimit="22.9256" x1="331.35" y1="156.96" x2="337.92" y2= "156.96" />
    </g>
   </g>
   <path fill="#2B2A29" fill-rule="nonzero" d="M371.84 168.95l0 3.66 -20.63 0c-0.03,-0.92 0.12,-1.81 0.44,-2.66 0.54,-1.4 1.38,-2.79 2.55,-4.14 1.17,-1.36 2.84,-2.93 5.01,-4.7 3.37,-2.78 5.66,-4.98 6.86,-6.61 1.2,-1.62 1.81,-3.16 1.81,-4.61 0,-1.51 -0.55,-2.79 -1.64,-3.84 -1.09,-1.03 -2.51,-1.56 -4.25,-1.56 -1.86,0 -3.33,0.56 -4.44,1.66 -1.11,1.09 -1.67,2.62 -1.69,4.57l-3.91 -0.39c0.26,-2.93 1.28,-5.17 3.03,-6.71 1.77,-1.53 4.13,-2.3 7.09,-2.3 2.99,0 5.36,0.82 7.1,2.49 1.75,1.66 2.62,3.72 2.62,6.17 0,1.25 -0.25,2.47 -0.77,3.68 -0.5,1.21 -1.35,2.48 -2.54,3.81 -1.19,1.33 -3.15,3.16 -5.89,5.49 -2.3,1.93 -3.78,3.23 -4.43,3.92 -0.66,0.69 -1.19,1.38 -1.62,2.07l15.3 0zm16.37 3.66l0 -7.44 -13.54 0 0 -3.53 14.23 -20.19 3.14 0 0 20.19 4.22 0 0 3.53 -4.22 0 0 7.44 -3.83 0zm0 -10.97l0 -14.02 -9.77 14.02 9.77 0z"/>
   <g>
    <g>
     <line fill="none" fill-rule="nonzero" stroke="#2B2A29" stroke-width="0.9" stroke-miterlimit="22.9256" x1="363.9" y1="312.82" x2="290.76" y2= "312.82" />
    </g>
    <g>
     <line fill="none" fill-rule="nonzero" stroke="#2B2A29" stroke-width="0.9" stroke-miterlimit="22.9256" x1="363.9" y1="206.58" x2="290.76" y2= "206.58" />
    </g>
    <g>
     <line fill="none" fill-rule="nonzero" stroke="#2B2A29" stroke-width="0.9" stroke-miterlimit="22.9256" x1="299.33" y1="290.43" x2="299.33" y2= "312.82" />
    </g>
    <g>
     <line fill="none" fill-rule="nonzero" stroke="#2B2A29" stroke-width="0.9" stroke-miterlimit="22.9256" x1="299.33" y1="206.58" x2="299.33" y2= "225.31" />
    </g>
   </g>
   <path fill="#2B2A29" fill-rule="nonzero" d="M306.71 277.15l-0.53 -3.83c2.18,-0.44 3.75,-1.18 4.7,-2.23 0.96,-1.05 1.44,-2.34 1.44,-3.87 0,-1.82 -0.62,-3.35 -1.87,-4.58 -1.25,-1.23 -2.79,-1.85 -4.64,-1.85 -1.75,0 -3.2,0.57 -4.35,1.73 -1.14,1.14 -1.71,2.6 -1.71,4.38 0,0.72 0.14,1.62 0.43,2.7l-3.35 -0.43c0.02,-0.25 0.04,-0.46 0.04,-0.61 0,-1.64 -0.43,-3.11 -1.28,-4.42 -0.85,-1.31 -2.15,-1.96 -3.91,-1.96 -1.4,0 -2.56,0.48 -3.49,1.43 -0.92,0.95 -1.37,2.18 -1.37,3.68 0,1.49 0.47,2.73 1.41,3.73 0.94,0.99 2.36,1.63 4.24,1.91l-0.69 3.83c-2.57,-0.47 -4.57,-1.53 -5.98,-3.19 -1.41,-1.65 -2.12,-3.72 -2.12,-6.19 0,-1.69 0.36,-3.26 1.1,-4.69 0.72,-1.44 1.72,-2.53 2.97,-3.29 1.26,-0.76 2.6,-1.14 4.01,-1.14 1.34,0 2.56,0.37 3.67,1.09 1.1,0.72 1.98,1.79 2.63,3.21 0.42,-1.84 1.3,-3.27 2.65,-4.3 1.33,-1.01 3.01,-1.52 5.02,-1.52 2.72,0 5.04,1 6.93,2.98 1.89,1.98 2.84,4.49 2.84,7.52 0,2.74 -0.82,5.01 -2.45,6.82 -1.64,1.81 -3.75,2.84 -6.34,3.09zm8.27 -38.57l0 3.84 -24.39 0c0.88,0.92 1.76,2.13 2.64,3.62 0.88,1.5 1.54,2.85 1.97,4.04l-3.7 0c-1,-2.15 -2.22,-4.02 -3.65,-5.62 -1.43,-1.6 -2.82,-2.74 -4.17,-3.41l0 -2.47 31.3 0z"/>
   <g>
    <path fill="#2B2A29" fill-rule="nonzero" d="M152.85 461.04l-49.34 0 0 -0.69 49.34 0 0.34 0.35 -0.34 0.34zm0 -0.69l0.34 0 0 0.35 -0.34 -0.35zm-0.35 49.68l0 -49.33 0.69 0 0 49.33 -0.34 0.35 -0.35 -0.35zm0.69 0l0 0.35 -0.34 0 0.34 -0.35zm-49.68 -0.34l49.34 0 0 0.69 -49.34 0 -0.34 -0.35 0.34 -0.34zm0 0.69l-0.34 0 0 -0.35 0.34 0.35zm0.34 -49.68l0 49.33 -0.68 0 0 -49.33 0.34 -0.35 0.34 0.35zm-0.68 0l0 -0.35 0.34 0 -0.34 0.35z"/>
   </g>
   <path fill="#2B2A29" fill-rule="nonzero" d="M116.31 489.55l0 -2.55 7.89 0 0 2.55 -7.89 0zm9.98 0.79l2.67 -0.21c0.2,1.3 0.66,2.28 1.37,2.94 0.72,0.65 1.6,0.98 2.63,0.98 1.24,0 2.28,-0.46 3.13,-1.39 0.84,-0.93 1.26,-2.16 1.26,-3.68 0,-1.46 -0.4,-2.61 -1.21,-3.45 -0.81,-0.84 -1.88,-1.26 -3.21,-1.26 -0.83,0 -1.56,0.19 -2.22,0.57 -0.66,0.37 -1.17,0.86 -1.55,1.46l-2.4 -0.35 2 -10.67 10.3 0 0 2.43 -8.27 0 -1.1 5.61c1.24,-0.88 2.55,-1.31 3.91,-1.31 1.81,0 3.34,0.63 4.58,1.88 1.24,1.26 1.87,2.88 1.87,4.85 0,1.88 -0.55,3.51 -1.64,4.87 -1.33,1.69 -3.15,2.53 -5.45,2.53 -1.89,0 -3.43,-0.53 -4.62,-1.59 -1.2,-1.06 -1.88,-2.46 -2.05,-4.21z"/>
   <g>
    <g>
     <line fill="none" fill-rule="nonzero" stroke="#2B2A29" stroke-width="0.9" stroke-miterlimit="22.9256" x1="161.42" y1="321.38" x2="161.42" y2= "388.39" />
    </g>
    <g>
     <line fill="none" fill-rule="nonzero" stroke="#2B2A29" stroke-width="0.9" stroke-miterlimit="22.9256" x1="372.47" y1="321.38" x2="372.47" y2= "388.39" />
    </g>
    <g>
     <line fill="none" fill-rule="nonzero" stroke="#2B2A29" stroke-width="0.9" stroke-miterlimit="22.9256" x1="233.1" y1="379.83" x2="161.42" y2= "379.83" />
    </g>
    <g>
     <line fill="none" fill-rule="nonzero" stroke="#2B2A29" stroke-width="0.9" stroke-miterlimit="22.9256" x1="372.47" y1="379.83" x2="304.1" y2= "379.83" />
    </g>
   </g>
   <path fill="#2B2A29" fill-rule="nonzero" d="M266.44 371.93l-3.78 0.3c-0.35,-1.5 -0.83,-2.6 -1.46,-3.28 -1.04,-1.09 -2.32,-1.64 -3.85,-1.64 -1.22,0 -2.31,0.34 -3.25,1.03 -1.2,0.87 -2.14,2.15 -2.85,3.83 -0.69,1.69 -1.06,4.09 -1.09,7.21 0.93,-1.4 2.06,-2.45 3.39,-3.12 1.34,-0.68 2.73,-1.03 4.19,-1.03 2.56,0 4.73,0.95 6.53,2.83 1.8,1.87 2.69,4.3 2.69,7.28 0,1.96 -0.42,3.77 -1.26,5.45 -0.85,1.69 -2,2.97 -3.48,3.86 -1.47,0.9 -3.15,1.34 -5.02,1.34 -3.18,0 -5.79,-1.17 -7.8,-3.51 -2.01,-2.35 -3.02,-6.21 -3.02,-11.6 0,-6.02 1.12,-10.4 3.34,-13.13 1.95,-2.38 4.56,-3.57 7.87,-3.57 2.45,0 4.46,0.69 6.03,2.06 1.57,1.37 2.51,3.26 2.82,5.69zm-15.67 13.45c0,1.32 0.29,2.58 0.84,3.78 0.56,1.21 1.35,2.12 2.34,2.75 1,0.63 2.06,0.95 3.18,0.95 1.64,0 3.03,-0.65 4.18,-1.96 1.16,-1.3 1.74,-3.07 1.74,-5.31 0,-2.16 -0.58,-3.86 -1.71,-5.1 -1.14,-1.24 -2.59,-1.86 -4.36,-1.86 -1.72,0 -3.2,0.62 -4.4,1.86 -1.2,1.24 -1.81,2.87 -1.81,4.89zm40.05 6.44l0 3.65 -20.63 0c-0.03,-0.92 0.13,-1.8 0.45,-2.66 0.53,-1.4 1.38,-2.78 2.55,-4.14 1.17,-1.36 2.84,-2.92 5,-4.7 3.38,-2.78 5.67,-4.98 6.87,-6.6 1.2,-1.63 1.8,-3.17 1.8,-4.62 0,-1.51 -0.54,-2.79 -1.63,-3.83 -1.09,-1.04 -2.51,-1.56 -4.26,-1.56 -1.85,0 -3.33,0.55 -4.44,1.65 -1.11,1.1 -1.67,2.62 -1.68,4.57l-3.92 -0.39c0.27,-2.93 1.29,-5.17 3.04,-6.7 1.76,-1.54 4.12,-2.31 7.09,-2.31 2.99,0 5.36,0.83 7.1,2.49 1.75,1.66 2.62,3.72 2.62,6.17 0,1.25 -0.25,2.47 -0.77,3.68 -0.51,1.21 -1.36,2.48 -2.54,3.81 -1.19,1.33 -3.15,3.17 -5.9,5.49 -2.3,1.93 -3.77,3.23 -4.43,3.92 -0.65,0.69 -1.19,1.38 -1.62,2.08l15.3 0z"/>
   <g>
    <g>
     <line fill="none" fill-rule="nonzero" stroke="#2B2A29" stroke-width="0.9" stroke-miterlimit="22.9256" x1="394.89" y1="261.41" x2="461.13" y2= "261.41" />
    </g>
    <g>
     <line fill="none" fill-rule="nonzero" stroke="#2B2A29" stroke-width="0.9" stroke-miterlimit="22.9256" x1="394.89" y1="206.58" x2="461.13" y2= "206.58" />
    </g>
    <g>
     <line fill="none" fill-rule="nonzero" stroke="#2B2A29" stroke-width="0.9" stroke-miterlimit="22.9256" x1="452.56" y1="261.41" x2="452.56" y2= "261.41" />
    </g>
    <g>
     <line fill="none" fill-rule="nonzero" stroke="#2B2A29" stroke-width="0.9" stroke-miterlimit="22.9256" x1="452.56" y1="206.58" x2="452.56" y2= "206.58" />
    </g>
   </g>
   <path fill="#2B2A29" fill-rule="nonzero" d="M468.21 238.68l0 3.83 -24.39 0c0.88,0.92 1.76,2.13 2.64,3.62 0.88,1.5 1.54,2.85 1.97,4.04l-3.7 0c-1,-2.14 -2.22,-4.01 -3.66,-5.62 -1.42,-1.6 -2.81,-2.74 -4.16,-3.41l0 -2.46 31.3 0zm-23.55 -29.74l0.3 3.79c-1.5,0.34 -2.59,0.83 -3.28,1.46 -1.09,1.04 -1.63,2.32 -1.63,3.84 0,1.23 0.34,2.32 1.02,3.25 0.88,1.21 2.15,2.15 3.83,2.85 1.69,0.7 4.1,1.06 7.21,1.09 -1.4,-0.92 -2.45,-2.05 -3.12,-3.39 -0.68,-1.33 -1.02,-2.72 -1.02,-4.19 0,-2.55 0.94,-4.73 2.82,-6.53 1.88,-1.79 4.3,-2.69 7.28,-2.69 1.96,0 3.77,0.42 5.46,1.26 1.68,0.85 2.96,2 3.86,3.49 0.89,1.47 1.34,3.14 1.34,5.01 0,3.19 -1.18,5.79 -3.52,7.81 -2.34,2.01 -6.21,3.02 -11.59,3.02 -6.02,0 -10.41,-1.12 -13.14,-3.35 -2.38,-1.94 -3.57,-4.56 -3.57,-7.86 0,-2.45 0.69,-4.47 2.06,-6.03 1.37,-1.57 3.27,-2.51 5.69,-2.83zm13.45 15.67c1.32,0 2.58,-0.28 3.78,-0.84 1.21,-0.56 2.12,-1.34 2.75,-2.34 0.63,-1 0.95,-2.06 0.95,-3.18 0,-1.63 -0.65,-3.02 -1.95,-4.18 -1.31,-1.15 -3.08,-1.73 -5.32,-1.73 -2.16,0 -3.85,0.57 -5.09,1.71 -1.25,1.14 -1.87,2.59 -1.87,4.35 0,1.73 0.62,3.2 1.87,4.41 1.24,1.2 2.86,1.8 4.88,1.8z"/>
  </g>
 </g>
</svg>
